<svg width="22" height="22" viewBox="0 0 22 22" fill="none" xmlns="http://www.w3.org/2000/svg">
<path fill-rule="evenodd" clip-rule="evenodd" d="M3.3986 3.3986C5.34317 1.45406 8.0317 0.25 11 0.25C13.9683 0.25 16.6568 1.45406 18.6014 3.3986L18.071 3.92893L18.6014 3.3986C20.5459 5.34317 21.75 8.0317 21.75 11C21.75 13.9683 20.5459 16.6568 18.6014 18.6014C16.6568 20.5459 13.9683 21.75 11 21.75C8.0317 21.75 5.34317 20.5459 3.3986 18.6014L3.92124 18.0787L3.3986 18.6014C1.45406 16.6568 0.25 13.9683 0.25 11C0.25 8.0317 1.45406 5.34317 3.39859 3.3986L3.3986 3.3986ZM11 1.75C8.4455 1.75 6.13403 2.78452 4.45926 4.45926C2.78451 6.13404 1.75 8.4455 1.75 11C1.75 13.5545 2.78452 15.866 4.45926 17.5407C6.13403 19.2155 8.4455 20.25 11 20.25C13.5545 20.25 15.866 19.2155 17.5407 17.5407C19.2155 15.866 20.25 13.5545 20.25 11C20.25 8.4455 19.2155 6.13403 17.5407 4.45926C15.866 2.78452 13.5545 1.75 11 1.75ZM11.0004 17.5C11.6907 17.5 12.2504 16.9404 12.2504 16.25C12.2504 15.5597 11.6907 15 11.0004 15C10.31 15 9.75039 15.5597 9.75039 16.25C9.75039 16.9404 10.31 17.5 11.0004 17.5ZM11.7502 5C11.7502 4.58579 11.4144 4.25 11.0002 4.25C10.586 4.25 10.2502 4.58579 10.2502 5V13C10.2502 13.4142 10.586 13.75 11.0002 13.75C11.4144 13.75 11.7502 13.4142 11.7502 13V5Z" fill="#F76707"/>
</svg>
