<svg width="40" height="40" viewBox="0 0 40 40" fill="none" xmlns="http://www.w3.org/2000/svg">
<path fill-rule="evenodd" clip-rule="evenodd" d="M20 34.1666C28.2842 34.1666 35 27.2315 35 22.4999C35 17.7683 28.2842 10.8333 20 10.8333C11.7157 10.8333 5 17.7731 5 22.4999C5 27.2268 11.7157 34.1666 20 34.1666Z" stroke="currentColor" stroke-width="3.33333" stroke-linejoin="round"/>
<path d="M20 27.4999C22.7614 27.4999 25 25.2614 25 22.4999C25 19.7385 22.7614 17.4999 20 17.4999C17.2386 17.4999 15 19.7385 15 22.4999C15 25.2614 17.2386 27.4999 20 27.4999Z" stroke="currentColor" stroke-width="3.33333" stroke-linejoin="round"/>
<path d="M11.0527 9.38831L13.2148 12.4051" stroke="currentColor" stroke-width="3.33333" stroke-linecap="round"/>
<path d="M29.6876 9.75861L27.5254 12.7754" stroke="currentColor" stroke-width="3.33333" stroke-linecap="round"/>
<path d="M20.0078 5.83325V10.8333" stroke="currentColor" stroke-width="3.33333" stroke-linecap="round"/>
</svg>
