<?xml version="1.0" standalone="no"?>
<!DOCTYPE svg PUBLIC "-//W3C//DTD SVG 20010904//EN"
 "http://www.w3.org/TR/2001/REC-SVG-20010904/DTD/svg10.dtd">
<svg version="1.0" xmlns="http://www.w3.org/2000/svg"
 width="512.000000pt" height="512.000000pt" viewBox="0 0 512.000000 512.000000"
 preserveAspectRatio="xMidYMid meet">

<g transform="translate(0.000000,512.000000) scale(0.100000,-0.100000)"
fill="#000000" stroke="none">
<path d="M2340 4953 c-313 -32 -565 -105 -845 -243 -245 -121 -410 -237 -604
-425 -380 -368 -625 -839 -708 -1366 -28 -178 -25 -570 5 -742 122 -679 480
-1234 1038 -1609 764 -513 1766 -540 2557 -68 229 136 473 348 640 555 588
729 700 1731 287 2564 -373 750 -1072 1238 -1905 1331 -84 9 -386 11 -465 3z
m431 -203 c495 -50 951 -260 1303 -599 374 -362 597 -806 667 -1331 17 -129
14 -416 -6 -556 -113 -793 -633 -1454 -1375 -1748 -396 -156 -861 -191 -1290
-96 -723 160 -1341 711 -1586 1413 -280 804 -79 1683 521 2282 370 369 826
583 1365 638 79 8 305 6 401 -3z"/>
<path d="M3485 4134 c-11 -3 -191 -39 -400 -80 -670 -133 -1043 -213 -1075
-229 -17 -9 -40 -30 -50 -48 -19 -31 -20 -54 -20 -527 0 -272 -3 -682 -7 -910
l-6 -415 -31 -31 c-26 -26 -48 -34 -141 -53 -313 -66 -420 -123 -483 -260 -23
-48 -27 -69 -26 -146 0 -75 4 -99 26 -146 33 -72 94 -134 167 -168 51 -24 66
-26 176 -25 101 1 133 5 202 28 122 39 206 112 253 218 17 40 21 79 29 329 6
156 13 538 17 849 7 593 8 611 51 624 20 6 931 192 1113 227 121 23 163 21
175 -8 10 -25 20 -1025 11 -1096 -9 -72 -29 -86 -149 -112 -353 -74 -450 -124
-517 -267 -54 -115 -40 -250 34 -345 47 -61 112 -110 170 -129 95 -32 312 -7
420 48 52 26 130 100 160 152 59 101 56 45 54 1314 l-3 1161 -21 22 c-22 21
-87 33 -129 23z"/>
</g>
</svg>
